# xmcd
#
# Track frame offsets:
#	150
#	17290
#	35102
#	52807
#	71142
#
# Disc length: 1249 seconds
#
# Revision: 1
# Processed by: cddbd v1.5.2PL0 Copyright (c) Steve Scherf et al.
# Submitted via: audiograbber 1.83.01
#
DISCID=3904df05
DTITLE=The Judds - Top Radio Hits
DYEAR=1900
DGENRE=Country
TTITLE0=Grandpa
TTITLE1=Why Not Me
TTITLE2=I Know Where I'm Going
TTITLE3=Mama, He's CrazyTrack  4
TTITLE4=She Is His Only Need
EXTD=
EXTT0=
EXTT1=
EXTT2=
EXTT3=
EXTT4=
PLAYORDER=
